<?xml version="1.0" standalone="no"?>
<!DOCTYPE svg PUBLIC "-//W3C//DTD SVG 20010904//EN"
 "http://www.w3.org/TR/2001/REC-SVG-20010904/DTD/svg10.dtd">
<svg version="1.0" xmlns="http://www.w3.org/2000/svg"
 width="700.000000pt" height="700.000000pt" viewBox="0 0 700.000000 700.000000"
 preserveAspectRatio="xMidYMid meet">
<metadata>
Created by potrace 1.14, written by Peter Selinger 2001-2017
</metadata>
<g transform="translate(0.000000,700.000000) scale(0.100000,-0.100000)"
fill="#000000" stroke="none">
<path d="M3710 3994 c-99 -27 -203 -111 -250 -204 l-21 -42 -30 45 c-41 62
-101 114 -168 146 -50 23 -68 26 -166 26 -105 0 -114 -2 -177 -33 -86 -42
-168 -129 -198 -209 -74 -199 -38 -426 90 -554 173 -173 483 -147 611 52 18
27 34 49 35 49 2 0 13 -19 25 -41 11 -23 43 -64 70 -91 166 -166 454 -156 609
19 167 190 157 556 -18 732 -103 103 -265 144 -412 105z m244 -218 c109 -53
162 -182 136 -328 -27 -147 -104 -217 -250 -226 -137 -8 -232 40 -285 143 -27
52 -30 68 -30 149 0 99 18 150 74 209 80 87 238 110 355 53z m-739 -30 c93
-43 138 -119 138 -231 0 -162 -98 -258 -263 -258 -164 1 -261 94 -261 252 0
95 29 160 96 213 68 53 204 65 290 24z"/>
</g>
</svg>
